<svg width="64" height="43" viewBox="0 0 64 43" fill="none" xmlns="http://www.w3.org/2000/svg">
<path d="M22.6226 20.3358C22.7343 20.8014 22.8108 21.2807 22.849 21.7707L22.4477 21.8019C22.4656 22.0314 22.4747 22.2635 22.4747 22.4977C22.4747 22.7319 22.4656 22.964 22.4477 23.1934L22.849 23.2247C22.8108 23.7147 22.7343 24.194 22.6226 24.6596L22.2312 24.5656C22.1221 25.0205 21.9777 25.4616 21.8011 25.8861L22.1727 26.0407C21.9855 26.4908 21.7637 26.9229 21.5106 27.3338L21.1679 27.1227C20.924 27.5185 20.6498 27.8938 20.3484 28.2453L20.654 28.5073C20.3383 28.8753 19.9942 29.2183 19.6251 29.5329L19.364 29.2266C19.0117 29.5268 18.6356 29.8 18.239 30.0428L18.4491 30.3861C18.0376 30.638 17.605 30.8587 17.1544 31.045L17.0006 30.673C16.5757 30.8486 16.1342 30.9922 15.679 31.1008L15.7724 31.4923C15.3067 31.6034 14.8273 31.6794 14.3373 31.7173L14.3062 31.316C14.0766 31.3338 13.8445 31.3429 13.6102 31.3429C13.3759 31.3429 13.1438 31.3338 12.9143 31.316L12.8832 31.7173C12.3931 31.6794 11.9138 31.6034 11.4481 31.4923L11.5415 31.1008C11.0863 30.9922 10.6447 30.8486 10.2199 30.673L10.0661 31.045C9.61549 30.8587 9.18281 30.638 8.77135 30.3861L8.9815 30.0428C8.58482 29.8 8.20872 29.5268 7.85643 29.2266L7.59537 29.5329C7.22621 29.2183 6.88212 28.8753 6.5665 28.5073L6.87203 28.2452C6.57064 27.8938 6.29642 27.5185 6.05259 27.1227L5.7099 27.3338C5.4568 26.9229 5.23498 26.4908 5.04775 26.0407L5.41937 25.8861C5.24279 25.4616 5.0984 25.0205 4.98924 24.5656L4.59786 24.6596C4.48612 24.194 4.40966 23.7147 4.37148 23.2247L4.77275 23.1934C4.75487 22.964 4.74575 22.7319 4.74575 22.4977C4.74575 22.2635 4.75487 22.0314 4.77275 21.8019L4.37148 21.7707C4.40966 21.2807 4.48612 20.8014 4.59786 20.3358L4.98924 20.4297C5.0984 19.9749 5.24279 19.5337 5.41937 19.1092L5.04775 18.9546C5.23498 18.5046 5.4568 18.0724 5.7099 17.6616L6.05259 17.8727C6.29642 17.4768 6.57064 17.1016 6.87203 16.7501L6.5665 16.4881C6.88212 16.1201 7.22622 15.777 7.59537 15.4624L7.85644 15.7688C8.20872 15.4685 8.58482 15.1954 8.9815 14.9526L8.77135 14.6093C9.18281 14.3574 9.61549 14.1367 10.0661 13.9504L10.2199 14.3224C10.6447 14.1467 11.0863 14.0031 11.5415 13.8946L11.4481 13.5031C11.9138 13.392 12.3931 13.316 12.8832 13.278L12.9143 13.6793C13.1438 13.6616 13.3759 13.6525 13.6102 13.6525C13.8445 13.6525 14.0766 13.6616 14.3062 13.6793L14.3373 13.278C14.8273 13.316 15.3067 13.392 15.7724 13.5031L15.679 13.8946C16.1342 14.0031 16.5757 14.1467 17.0006 14.3224L17.1544 13.9504C17.605 14.1367 18.0377 14.3574 18.4491 14.6093L18.239 14.9526C18.6356 15.1954 19.0117 15.4686 19.364 15.7688L19.6251 15.4624C19.9942 15.777 20.3383 16.1201 20.654 16.4881L20.3484 16.7501C20.6498 17.1016 20.924 17.4768 21.1679 17.8727L21.5106 17.6616C21.7637 18.0724 21.9855 18.5046 22.1727 18.9546L21.8011 19.1092C21.9777 19.5337 22.1221 19.9749 22.2312 20.4297L22.6226 20.3358Z" stroke="url(#paint0_linear_165_60)" stroke-width="0.804985" stroke-dasharray="1.61 1.61"/>
<g filter="url(#filter0_d_165_60)">
<path d="M25.1566 12.2832C25.3661 12.7869 25.5124 13.3233 25.5856 13.8827L25.1567 13.9388C25.1898 14.1914 25.2069 14.4493 25.2069 14.7113C25.2069 14.9733 25.1898 15.2311 25.1567 15.4837L25.5856 15.5399C25.5124 16.0992 25.3661 16.6357 25.1566 17.1394L24.7572 16.9732C24.5576 17.4532 24.2962 17.9014 23.9828 18.3079L24.3254 18.572C23.9871 19.0108 23.5925 19.4042 23.1524 19.7414L22.8893 19.398C22.482 19.71 22.033 19.9703 21.5523 20.169L21.7175 20.5688C21.2136 20.7771 20.6769 20.9226 20.1173 20.9953L20.0615 20.5664C19.8088 20.5992 19.5508 20.6162 19.2887 20.6162C19.0266 20.6162 18.7686 20.5992 18.5159 20.5664L18.4601 20.9953C17.9005 20.9226 17.3638 20.7771 16.8599 20.5688L17.0251 20.169C16.5444 19.9703 16.0954 19.71 15.6881 19.398L15.425 19.7414C14.9849 19.4042 14.5903 19.0108 14.252 18.572L14.5946 18.3079C14.2812 17.9014 14.0198 17.4532 13.8202 16.9732L13.4208 17.1394C13.2113 16.6357 13.065 16.0992 12.9918 15.5399L13.4207 15.4837C13.3876 15.2311 13.3705 14.9733 13.3705 14.7113C13.3705 14.4493 13.3876 14.1914 13.4207 13.9388L12.9918 13.8827C13.065 13.3233 13.2113 12.7869 13.4208 12.2832L13.8202 12.4493C14.0198 11.9694 14.2812 11.5212 14.5946 11.1147L14.252 10.8506C14.5903 10.4117 14.9849 10.0183 15.425 9.68117L15.6881 10.0245C16.0954 9.71252 16.5444 9.45227 17.0251 9.25352L16.8599 8.85378C17.3638 8.64545 17.9005 8.5 18.4601 8.42724L18.5159 8.85618C18.7686 8.82331 19.0266 8.80633 19.2887 8.80633C19.5508 8.80633 19.8088 8.82331 20.0615 8.85618L20.1173 8.42724C20.6769 8.5 21.2136 8.64545 21.7175 8.85378L21.5523 9.25352C22.033 9.45227 22.482 9.71252 22.8893 10.0245L23.1524 9.68117C23.5925 10.0183 23.9871 10.4117 24.3254 10.8506L23.9828 11.1147C24.2962 11.5212 24.5576 11.9694 24.7572 12.4493L25.1566 12.2832Z" stroke="url(#paint1_linear_165_60)" stroke-width="0.865105" stroke-dasharray="1.68 1.68" shape-rendering="crispEdges"/>
</g>
<path d="M57.1903 16.4471C57.3267 17.0154 57.42 17.6005 57.4666 18.1986L56.9768 18.2368C56.9986 18.517 57.0098 18.8002 57.0098 19.0861C57.0098 19.3721 56.9986 19.6553 56.9768 19.9355L57.4666 19.9736C57.42 20.5718 57.3267 21.1568 57.1903 21.7252L56.7125 21.6105C56.5793 22.1657 56.403 22.7043 56.1875 23.2225L56.6411 23.4112C56.4126 23.9606 56.1418 24.4881 55.8328 24.9897L55.4145 24.732C55.1168 25.2152 54.7821 25.6732 54.4142 26.1023L54.7872 26.4221C54.4019 26.8714 53.9818 27.2901 53.5312 27.6742L53.2125 27.3002C52.7825 27.6667 52.3234 28.0001 51.8391 28.2965L52.0957 28.7156C51.5934 29.0231 51.0652 29.2925 50.5151 29.5199L50.3274 29.0658C49.8088 29.2802 49.2698 29.4556 48.7141 29.5881L48.8281 30.066C48.2596 30.2016 47.6745 30.2943 47.0763 30.3407L47.0384 29.8508C46.7581 29.8725 46.4748 29.8836 46.1888 29.8836C45.9028 29.8836 45.6194 29.8725 45.3392 29.8508L45.3013 30.3407C44.7031 30.2943 44.1179 30.2016 43.5494 30.066L43.6634 29.5881C43.1078 29.4556 42.5688 29.2802 42.0501 29.0658L41.8624 29.5199C41.3123 29.2925 40.7842 29.0231 40.2819 28.7156L40.5384 28.2965C40.0542 28.0001 39.5951 27.6667 39.165 27.3002L38.8464 27.6742C38.3957 27.2901 37.9757 26.8714 37.5904 26.4221L37.9634 26.1023C37.5955 25.6732 37.2607 25.2152 36.9631 24.732L36.5447 24.9897C36.2358 24.4881 35.965 23.9606 35.7364 23.4112L36.1901 23.2225C35.9745 22.7043 35.7983 22.1657 35.665 21.6105L35.1873 21.7252C35.0509 21.1568 34.9575 20.5718 34.9109 19.9736L35.4008 19.9355C35.3789 19.6553 35.3678 19.3721 35.3678 19.0861C35.3678 18.8002 35.3789 18.517 35.4008 18.2368L34.9109 18.1986C34.9575 17.6005 35.0509 17.0154 35.1873 16.4471L35.665 16.5618C35.7983 16.0065 35.9745 15.468 36.1901 14.9498L35.7364 14.7611C35.965 14.2117 36.2358 13.6842 36.5447 13.1826L36.9631 13.4403C37.2607 12.9571 37.5955 12.499 37.9634 12.07L37.5904 11.7502C37.9757 11.3009 38.3957 10.8821 38.8464 10.4981L39.165 10.8721C39.5951 10.5056 40.0542 10.1722 40.5384 9.87572L40.2819 9.45668C40.7842 9.1492 41.3123 8.87976 41.8624 8.65237L42.0501 9.10643C42.5688 8.89202 43.1078 8.71672 43.6634 8.58419L43.5494 8.10627C44.1179 7.97068 44.7031 7.87792 45.3013 7.83159L45.3392 8.32146C45.6194 8.29975 45.9028 8.28869 46.1888 8.28869C46.4748 8.28869 46.7581 8.29975 47.0384 8.32146L47.0763 7.83159C47.6745 7.87792 48.2596 7.97068 48.8281 8.10627L48.7141 8.58419C49.2698 8.71672 49.8088 8.89202 50.3274 9.10643L50.5152 8.65237C51.0652 8.87976 51.5934 9.1492 52.0957 9.45668L51.8391 9.87572C52.3234 10.1722 52.7825 10.5056 53.2125 10.8721L53.5312 10.4981C53.9818 10.8821 54.4019 11.3009 54.7872 11.7502L54.4142 12.07C54.7821 12.499 55.1168 12.9571 55.4145 13.4403L55.8328 13.1826C56.1418 13.6842 56.4126 14.2117 56.6411 14.7611L56.1875 14.9498C56.403 15.468 56.5793 16.0065 56.7125 16.5618L57.1903 16.4471Z" stroke="url(#paint2_linear_165_60)" stroke-width="0.982655" stroke-dasharray="1.97 1.97"/>
<path d="M46.5078 14.1495C46.5946 14.6296 46.6588 15.1176 46.6992 15.6123L46.2873 15.6459C46.3199 16.0454 46.3365 16.4496 46.3365 16.8577C46.3365 17.2659 46.3199 17.6701 46.2873 18.0696L46.6992 18.1032C46.6588 18.5979 46.5946 19.0859 46.5078 19.566L46.1011 19.4923C45.9556 20.2961 45.7448 21.0771 45.4742 21.8297L45.8632 21.9695C45.696 22.4345 45.5067 22.889 45.2966 23.3317L44.9232 23.1544C44.5751 23.8876 44.168 24.5876 43.7081 25.2483L44.0473 25.4844C43.7659 25.8887 43.4652 26.2786 43.1466 26.6529L42.8319 26.385C42.308 27.0004 41.7343 27.5724 41.117 28.0946L41.3839 28.4101C41.0087 28.7275 40.6179 29.027 40.2127 29.3073L39.9776 28.9674C39.3157 29.4253 38.6146 29.8305 37.8803 30.177L38.0566 30.5508C37.6135 30.7598 37.1586 30.9481 36.6932 31.1143L36.5542 30.7251C35.8011 30.9942 35.0196 31.2038 34.2155 31.3484L34.2886 31.7552C33.8085 31.8416 33.3205 31.9054 32.8258 31.9455L32.7923 31.5335C32.3927 31.566 31.9884 31.5825 31.5802 31.5825C31.172 31.5825 30.7678 31.566 30.3681 31.5335L30.3347 31.9455C29.84 31.9054 29.352 31.8416 28.8718 31.7552L28.945 31.3484C28.1408 31.2038 27.3594 30.9942 26.6063 30.7251L26.4672 31.1143C26.0018 30.9481 25.547 30.7598 25.1038 30.5508L25.2802 30.177C24.5459 29.8305 23.8447 29.4253 23.1829 28.9674L22.9477 29.3073C22.5426 29.027 22.1517 28.7275 21.7766 28.4101L22.0435 28.0946C21.4262 27.5724 20.8525 27.0004 20.3286 26.385L20.0139 26.6529C19.6953 26.2786 19.3946 25.8887 19.1132 25.4844L19.4524 25.2483C18.9924 24.5876 18.5853 23.8876 18.2372 23.1544L17.8639 23.3317C17.6537 22.889 17.4644 22.4345 17.2973 21.9695L17.6862 21.8297C17.4157 21.0771 17.2049 20.2961 17.0594 19.4923L16.6527 19.566C16.5658 19.0859 16.5016 18.5979 16.4613 18.1032L16.8732 18.0696C16.8406 17.6701 16.8239 17.2659 16.8239 16.8577C16.8239 16.4496 16.8406 16.0454 16.8732 15.6459L16.4613 15.6123C16.5016 15.1176 16.5658 14.6296 16.6527 14.1495L17.0594 14.2232C17.2049 13.4194 17.4157 12.6384 17.6862 11.8858L17.2973 11.746C17.4644 11.281 17.6537 10.8265 17.8639 10.3838L18.2372 10.5611C18.5853 9.8279 18.9924 9.1279 19.4524 8.46721L19.1132 8.23108C19.3946 7.82682 19.6953 7.4369 20.0139 7.06264L20.3286 7.33053C20.8525 6.71507 21.4262 6.14312 22.0435 5.62092L21.7766 5.30539C22.1517 4.98802 22.5426 4.68853 22.9477 4.40823L23.1829 4.7481C23.8447 4.29021 24.5459 3.885 25.2802 3.53851L25.1038 3.16474C25.547 2.95567 26.0018 2.76739 26.4672 2.60115L26.6063 2.99035C27.3594 2.72135 28.1408 2.5117 28.945 2.36706L28.8718 1.96031C29.352 1.87395 29.84 1.81014 30.3347 1.77002L30.3681 2.18195C30.7678 2.14954 31.172 2.13301 31.5802 2.13301C31.9884 2.13301 32.3927 2.14954 32.7923 2.18195L32.8258 1.77002C33.3205 1.81014 33.8085 1.87395 34.2886 1.96031L34.2155 2.36706C35.0196 2.5117 35.8011 2.72135 36.5542 2.99035L36.6932 2.60115C37.1586 2.76739 37.6135 2.95567 38.0566 3.16475L37.8803 3.53851C38.6146 3.885 39.3157 4.29021 39.9776 4.7481L40.2127 4.40823C40.6179 4.68853 41.0087 4.98802 41.3839 5.30539L41.117 5.62092C41.7343 6.14312 42.308 6.71507 42.8319 7.33053L43.1466 7.06264C43.4652 7.4369 43.7659 7.82682 44.0473 8.23108L43.7081 8.46721C44.168 9.1279 44.5751 9.8279 44.9232 10.5611L45.2966 10.3838C45.5067 10.8265 45.696 11.281 45.8632 11.746L45.4742 11.8858C45.7448 12.6384 45.9556 13.4194 46.1011 14.2232L46.5078 14.1495Z" stroke="url(#paint3_linear_165_60)" stroke-width="0.826571" stroke-miterlimit="4.25735" stroke-dasharray="2.71 1.6"/>
<path d="M43.929 8.12618L44.518 8.93054L45.5147 8.9517C47.4698 8.99321 50.4438 9.63258 52.8695 11.3528C55.187 12.9962 57.092 15.6734 57.1063 20.1338C57.0172 21.7387 56.3436 24.2188 54.6211 26.2674C52.9471 28.2585 50.1753 29.9769 45.5576 29.9769H13.0053C11.7755 29.8887 9.90578 29.3949 8.3844 28.2411C6.92484 27.1341 5.71916 25.3832 5.71916 22.4893V22.4346L5.7162 22.3801C5.63546 20.8894 5.94216 18.659 7.02685 16.8774C8.03186 15.2267 9.75298 13.8493 12.938 13.8493H14.4211L14.8643 12.4339C15.0264 11.9162 15.4416 11.0762 16.0835 10.4271C16.69 9.81386 17.3946 9.46014 18.2791 9.52318L19.4989 9.61013L20.1408 8.56924C21.4626 6.42578 25.7759 2.03852 31.99 2.03852H32.0619L32.1336 2.03341C34.3056 1.87859 40.0431 2.81971 43.929 8.12618Z" stroke="url(#paint4_linear_165_60)" stroke-width="4.03716" stroke-linecap="square"/>
<path d="M2.58415 40.2128H1.13869L0.899513 40.9043H0.135187L1.44026 37.2698H2.28778L3.59285 40.9043H2.82333L2.58415 40.2128ZM2.38657 39.6304L1.86142 38.1122L1.33627 39.6304H2.38657ZM4.8086 40.3272H6.00448V40.9043H4.08067V37.275H4.8086V40.3272ZM7.19509 40.3272H8.39097V40.9043H6.46716V37.275H7.19509V40.3272ZM9.9158 39.0845C9.9158 38.7274 9.99553 38.4085 10.155 38.1278C10.3179 37.8435 10.538 37.6234 10.8153 37.4674C11.0961 37.308 11.4098 37.2283 11.7564 37.2283C12.162 37.2283 12.5173 37.3322 12.8223 37.5402C13.1274 37.7482 13.3405 38.0359 13.4619 38.4033H12.6247C12.5415 38.23 12.4237 38.1 12.2712 38.0134C12.1221 37.9267 11.9488 37.8834 11.7512 37.8834C11.5398 37.8834 11.3509 37.9337 11.1845 38.0342C11.0216 38.1312 10.8933 38.2699 10.7997 38.4501C10.7096 38.6304 10.6645 38.8418 10.6645 39.0845C10.6645 39.3237 10.7096 39.5351 10.7997 39.7188C10.8933 39.8991 11.0216 40.0394 11.1845 40.14C11.3509 40.237 11.5398 40.2856 11.7512 40.2856C11.9488 40.2856 12.1221 40.2422 12.2712 40.1556C12.4237 40.0654 12.5415 39.9337 12.6247 39.7604H13.4619C13.3405 40.1313 13.1274 40.4207 12.8223 40.6287C12.5207 40.8332 12.1655 40.9355 11.7564 40.9355C11.4098 40.9355 11.0961 40.8575 10.8153 40.7015C10.538 40.5421 10.3179 40.322 10.155 40.0412C9.99553 39.7604 9.9158 39.4415 9.9158 39.0845ZM14.8115 40.3272H16.0074V40.9043H14.0836V37.275H14.8115V40.3272ZM18.1547 40.9407C17.815 40.9407 17.5031 40.861 17.2188 40.7015C16.9346 40.5421 16.7093 40.322 16.5429 40.0412C16.3765 39.7569 16.2933 39.4363 16.2933 39.0793C16.2933 38.7257 16.3765 38.4085 16.5429 38.1278C16.7093 37.8435 16.9346 37.6217 17.2188 37.4622C17.5031 37.3028 17.815 37.2231 18.1547 37.2231C18.4979 37.2231 18.8099 37.3028 19.0906 37.4622C19.3749 37.6217 19.5985 37.8435 19.7614 38.1278C19.9278 38.4085 20.0109 38.7257 20.0109 39.0793C20.0109 39.4363 19.9278 39.7569 19.7614 40.0412C19.5985 40.322 19.3749 40.5421 19.0906 40.7015C18.8064 40.861 18.4944 40.9407 18.1547 40.9407ZM18.1547 40.2908C18.3731 40.2908 18.5655 40.2422 18.7319 40.1452C18.8983 40.0446 19.0282 39.9025 19.1218 39.7188C19.2154 39.5351 19.2622 39.3219 19.2622 39.0793C19.2622 38.8366 19.2154 38.6252 19.1218 38.4449C19.0282 38.2612 18.8983 38.1208 18.7319 38.0238C18.5655 37.9267 18.3731 37.8782 18.1547 37.8782C17.9363 37.8782 17.7422 37.9267 17.5724 38.0238C17.406 38.1208 17.276 38.2612 17.1824 38.4449C17.0888 38.6252 17.042 38.8366 17.042 39.0793C17.042 39.3219 17.0888 39.5351 17.1824 39.7188C17.276 39.9025 17.406 40.0446 17.5724 40.1452C17.7422 40.2422 17.9363 40.2908 18.1547 40.2908ZM21.27 37.275V39.5212C21.27 39.7673 21.3342 39.9563 21.4624 40.088C21.5907 40.2162 21.7709 40.2804 22.0032 40.2804C22.2389 40.2804 22.4209 40.2162 22.5491 40.088C22.6774 39.9563 22.7415 39.7673 22.7415 39.5212V37.275H23.4746V39.516C23.4746 39.8245 23.407 40.0862 23.2718 40.3012C23.1401 40.5126 22.9616 40.6721 22.7363 40.7795C22.5144 40.887 22.2666 40.9407 21.9928 40.9407C21.7224 40.9407 21.4763 40.887 21.2544 40.7795C21.0361 40.6721 20.8627 40.5126 20.7345 40.3012C20.6062 40.0862 20.5421 39.8245 20.5421 39.516V37.275H21.27ZM25.4466 37.275C25.8279 37.275 26.1624 37.3496 26.4501 37.4986C26.7413 37.6477 26.9649 37.8609 27.1208 38.1382C27.2803 38.412 27.36 38.7309 27.36 39.0949C27.36 39.4588 27.2803 39.7777 27.1208 40.0516C26.9649 40.322 26.7413 40.5317 26.4501 40.6807C26.1624 40.8298 25.8279 40.9043 25.4466 40.9043H24.1779V37.275H25.4466ZM25.4206 40.2856C25.8019 40.2856 26.0965 40.1816 26.3045 39.9736C26.5125 39.7656 26.6165 39.4727 26.6165 39.0949C26.6165 38.717 26.5125 38.4224 26.3045 38.211C26.0965 37.996 25.8019 37.8886 25.4206 37.8886H24.9059V40.2856H25.4206ZM31.6136 37.275V37.8626H30.6465V40.9043H29.9186V37.8626H28.9515V37.275H31.6136ZM32.8727 37.8626V38.7725H34.0946V39.3496H32.8727V40.3116H34.2505V40.9043H32.1447V37.2698H34.2505V37.8626H32.8727ZM34.7353 39.0845C34.7353 38.7274 34.815 38.4085 34.9744 38.1278C35.1374 37.8435 35.3575 37.6234 35.6348 37.4674C35.9156 37.308 36.2293 37.2283 36.5759 37.2283C36.9814 37.2283 37.3367 37.3322 37.6418 37.5402C37.9468 37.7482 38.16 38.0359 38.2813 38.4033H37.4442C37.361 38.23 37.2432 38.1 37.0906 38.0134C36.9416 37.9267 36.7683 37.8834 36.5707 37.8834C36.3592 37.8834 36.1703 37.9337 36.0039 38.0342C35.841 38.1312 35.7128 38.2699 35.6192 38.4501C35.5291 38.6304 35.484 38.8418 35.484 39.0845C35.484 39.3237 35.5291 39.5351 35.6192 39.7188C35.7128 39.8991 35.841 40.0394 36.0039 40.14C36.1703 40.237 36.3592 40.2856 36.5707 40.2856C36.7683 40.2856 36.9416 40.2422 37.0906 40.1556C37.2432 40.0654 37.361 39.9337 37.4442 39.7604H38.2813C38.16 40.1313 37.9468 40.4207 37.6418 40.6287C37.3402 40.8332 36.9849 40.9355 36.5759 40.9355C36.2293 40.9355 35.9156 40.8575 35.6348 40.7015C35.3575 40.5421 35.1374 40.322 34.9744 40.0412C34.815 39.7604 34.7353 39.4415 34.7353 39.0845ZM41.9136 37.275V40.9043H41.1856V39.36H39.631V40.9043H38.9031V37.275H39.631V38.7673H41.1856V37.275H41.9136ZM45.7341 40.9043H45.0062L43.358 38.4137V40.9043H42.6301V37.2698H43.358L45.0062 39.7656V37.2698H45.7341V40.9043ZM48.1381 40.9407C47.7984 40.9407 47.4865 40.861 47.2022 40.7015C46.918 40.5421 46.6927 40.322 46.5263 40.0412C46.3599 39.7569 46.2767 39.4363 46.2767 39.0793C46.2767 38.7257 46.3599 38.4085 46.5263 38.1278C46.6927 37.8435 46.918 37.6217 47.2022 37.4622C47.4865 37.3028 47.7984 37.2231 48.1381 37.2231C48.4813 37.2231 48.7933 37.3028 49.0741 37.4622C49.3583 37.6217 49.5819 37.8435 49.7448 38.1278C49.9112 38.4085 49.9944 38.7257 49.9944 39.0793C49.9944 39.4363 49.9112 39.7569 49.7448 40.0412C49.5819 40.322 49.3583 40.5421 49.0741 40.7015C48.7898 40.861 48.4778 40.9407 48.1381 40.9407ZM48.1381 40.2908C48.3565 40.2908 48.5489 40.2422 48.7153 40.1452C48.8817 40.0446 49.0117 39.9025 49.1052 39.7188C49.1988 39.5351 49.2456 39.3219 49.2456 39.0793C49.2456 38.8366 49.1988 38.6252 49.1052 38.4449C49.0117 38.2612 48.8817 38.1208 48.7153 38.0238C48.5489 37.9267 48.3565 37.8782 48.1381 37.8782C47.9198 37.8782 47.7257 37.9267 47.5558 38.0238C47.3894 38.1208 47.2594 38.2612 47.1658 38.4449C47.0722 38.6252 47.0255 38.8366 47.0255 39.0793C47.0255 39.3219 47.0722 39.5351 47.1658 39.7188C47.2594 39.9025 47.3894 40.0446 47.5558 40.1452C47.7257 40.2422 47.9198 40.2908 48.1381 40.2908ZM51.2639 40.3272H52.4597V40.9043H50.5359V37.275H51.2639V40.3272ZM54.607 40.9407C54.2673 40.9407 53.9554 40.861 53.6711 40.7015C53.3869 40.5421 53.1616 40.322 52.9952 40.0412C52.8288 39.7569 52.7456 39.4363 52.7456 39.0793C52.7456 38.7257 52.8288 38.4085 52.9952 38.1278C53.1616 37.8435 53.3869 37.6217 53.6711 37.4622C53.9554 37.3028 54.2673 37.2231 54.607 37.2231C54.9502 37.2231 55.2622 37.3028 55.543 37.4622C55.8272 37.6217 56.0508 37.8435 56.2137 38.1278C56.3801 38.4085 56.4633 38.7257 56.4633 39.0793C56.4633 39.4363 56.3801 39.7569 56.2137 40.0412C56.0508 40.322 55.8272 40.5421 55.543 40.7015C55.2587 40.861 54.9467 40.9407 54.607 40.9407ZM54.607 40.2908C54.8254 40.2908 55.0178 40.2422 55.1842 40.1452C55.3506 40.0446 55.4806 39.9025 55.5742 39.7188C55.6677 39.5351 55.7145 39.3219 55.7145 39.0793C55.7145 38.8366 55.6677 38.6252 55.5742 38.4449C55.4806 38.2612 55.3506 38.1208 55.1842 38.0238C55.0178 37.9267 54.8254 37.8782 54.607 37.8782C54.3887 37.8782 54.1946 37.9267 54.0247 38.0238C53.8583 38.1208 53.7283 38.2612 53.6347 38.4449C53.5411 38.6252 53.4944 38.8366 53.4944 39.0793C53.4944 39.3219 53.5411 39.5351 53.6347 39.7188C53.7283 39.9025 53.8583 40.0446 54.0247 40.1452C54.1946 40.2422 54.3887 40.2908 54.607 40.2908ZM59.5318 38.3669C59.4486 38.2144 59.3342 38.0983 59.1886 38.0186C59.043 37.9389 58.8732 37.899 58.6791 37.899C58.4642 37.899 58.2735 37.9475 58.1071 38.0446C57.9407 38.1416 57.8107 38.2803 57.7172 38.4605C57.6236 38.6408 57.5768 38.8488 57.5768 39.0845C57.5768 39.3271 57.6236 39.5386 57.7172 39.7188C57.8142 39.8991 57.9477 40.0377 58.1175 40.1348C58.2874 40.2318 58.4849 40.2804 58.7103 40.2804C58.9876 40.2804 59.2146 40.2076 59.3914 40.062C59.5682 39.9129 59.6843 39.7067 59.7398 39.4432H58.4919V38.8869H60.4573V39.5212C60.4088 39.7743 60.3048 40.0083 60.1453 40.2232C59.9859 40.4381 59.7796 40.6114 59.5266 40.7431C59.277 40.8714 58.9962 40.9355 58.6843 40.9355C58.3342 40.9355 58.017 40.8575 57.7328 40.7015C57.452 40.5421 57.2301 40.322 57.0672 40.0412C56.9078 39.7604 56.828 39.4415 56.828 39.0845C56.828 38.7274 56.9078 38.4085 57.0672 38.1278C57.2301 37.8435 57.452 37.6234 57.7328 37.4674C58.017 37.308 58.3324 37.2283 58.6791 37.2283C59.0881 37.2283 59.4434 37.3288 59.745 37.5298C60.0465 37.7274 60.2545 38.0064 60.3689 38.3669H59.5318ZM63.8816 37.275L62.6545 39.6408V40.9043H61.9266V39.6408L60.6943 37.275H61.5158L62.2957 38.9337L63.0704 37.275H63.8816Z" fill="#01224F"/>
<defs>
<filter id="filter0_d_165_60" x="10.631" y="8.37378" width="17.3156" height="17.2889" filterUnits="userSpaceOnUse" color-interpolation-filters="sRGB">
<feFlood flood-opacity="0" result="BackgroundImageFix"/>
<feColorMatrix in="SourceAlpha" type="matrix" values="0 0 0 0 0 0 0 0 0 0 0 0 0 0 0 0 0 0 127 0" result="hardAlpha"/>
<feOffset dy="2.30695"/>
<feGaussianBlur stdDeviation="1.15347"/>
<feComposite in2="hardAlpha" operator="out"/>
<feColorMatrix type="matrix" values="0 0 0 0 0 0 0 0 0 0 0 0 0 0 0 0 0 0 0.25 0"/>
<feBlend mode="normal" in2="BackgroundImageFix" result="effect1_dropShadow_165_60"/>
<feBlend mode="normal" in="SourceGraphic" in2="effect1_dropShadow_165_60" result="shape"/>
</filter>
<linearGradient id="paint0_linear_165_60" x1="6.52373" y1="22.4977" x2="22.8769" y2="23.5902" gradientUnits="userSpaceOnUse">
<stop stop-color="#00529A"/>
<stop offset="1" stop-color="#0067AC"/>
</linearGradient>
<linearGradient id="paint1_linear_165_60" x1="13.804" y1="15.5755" x2="25.6394" y2="15.8648" gradientUnits="userSpaceOnUse">
<stop stop-color="#005BA2"/>
<stop offset="1" stop-color="#006BB0"/>
</linearGradient>
<linearGradient id="paint2_linear_165_60" x1="35.9288" y1="19.3487" x2="57.5011" y2="19.3487" gradientUnits="userSpaceOnUse">
<stop stop-color="#0077BA"/>
<stop offset="1" stop-color="#0094D4"/>
</linearGradient>
<linearGradient id="paint3_linear_165_60" x1="16.6865" y1="22.0872" x2="47.0255" y2="21.2581" gradientUnits="userSpaceOnUse">
<stop stop-color="#005BA2"/>
<stop offset="1" stop-color="#0086C8"/>
</linearGradient>
<linearGradient id="paint4_linear_165_60" x1="8.31919" y1="19.0325" x2="54.7948" y2="18.1647" gradientUnits="userSpaceOnUse">
<stop stop-color="#00529A"/>
<stop offset="1" stop-color="#0094D4"/>
</linearGradient>
</defs>
</svg>
