<svg width="24" height="25" viewBox="0 0 24 25" fill="none" xmlns="http://www.w3.org/2000/svg">
<path d="M12 24.4985C18.6274 24.4985 24 19.126 24 12.4985C24 5.87112 18.6274 0.498535 12 0.498535C5.37258 0.498535 0 5.87112 0 12.4985C0 19.126 5.37258 24.4985 12 24.4985Z" fill="url(#paint0_linear_248_74)"/>
<path d="M16.4689 16.1687L17.002 12.7817H13.6673V10.5847C13.6673 9.65792 14.1323 8.75397 15.6259 8.75397H17.1429V5.87045C17.1429 5.87045 15.7667 5.6416 14.4517 5.6416C11.7041 5.6416 9.91006 7.26412 9.91006 10.2002V12.7817H6.85718V16.1687H9.91006V24.3569C10.5229 24.4507 11.1499 24.4987 11.7887 24.4987C12.4274 24.4987 13.0545 24.4507 13.6673 24.3569V16.1687H16.4689Z" fill="white"/>
<defs>
<linearGradient id="paint0_linear_248_74" x1="12" y1="0.498535" x2="12" y2="24.4274" gradientUnits="userSpaceOnUse">
<stop stop-color="#18ACFE"/>
<stop offset="1" stop-color="#0163E0"/>
</linearGradient>
</defs>
</svg>
