<svg width="23" height="23" viewBox="0 0 23 23" fill="none" xmlns="http://www.w3.org/2000/svg">
<path d="M17.611 4.23438C16.8411 4.23438 16.2637 4.81178 16.2637 5.58166C16.2637 6.35153 16.8411 6.92894 17.611 6.92894C18.3808 6.92894 18.9582 6.35153 18.9582 5.58166C18.9582 4.81178 18.3808 4.23438 17.611 4.23438Z" fill="white"/>
<path d="M11.5482 5.96655C8.37245 5.96655 5.87036 8.56488 5.87036 11.6444C5.87036 14.7239 8.46869 17.3222 11.5482 17.3222C14.6277 17.3222 17.226 14.7239 17.226 11.6444C17.226 8.56488 14.7239 5.96655 11.5482 5.96655ZM11.5482 15.3013C9.52726 15.3013 7.89128 13.6653 7.89128 11.6444C7.89128 9.62346 9.52726 7.98747 11.5482 7.98747C13.5691 7.98747 15.2051 9.62346 15.2051 11.6444C15.2051 13.6653 13.5691 15.3013 11.5482 15.3013Z" fill="white"/>
<path d="M16.1674 0H7.02511C3.0795 0 0 3.0795 0 6.92887V16.0711C0 19.9205 3.0795 23 6.92887 23H16.0711C19.9205 23 23 19.9205 23 16.0711V6.92887C23.0962 3.0795 20.0167 0 16.1674 0ZM20.8828 16.1674C20.8828 18.7657 18.7657 20.9791 16.0711 20.9791H6.92887C4.33054 20.9791 2.11715 18.8619 2.11715 16.1674V7.0251C2.11715 4.42678 4.23431 2.21339 6.92887 2.21339H16.0711C18.6695 2.21339 20.8828 4.33054 20.8828 7.0251V16.1674Z" fill="white"/>
</svg>
