<svg width="25" height="25" viewBox="0 0 25 25" fill="none" xmlns="http://www.w3.org/2000/svg">
<path d="M19.2346 0.498535H5.5203C2.67998 0.498535 0.377441 2.80107 0.377441 5.64139V19.3557C0.377441 22.196 2.67998 24.4985 5.5203 24.4985H19.2346C22.0749 24.4985 24.3774 22.196 24.3774 19.3557V5.64139C24.3774 2.80107 22.0749 0.498535 19.2346 0.498535Z" fill="url(#paint0_radial_248_75)"/>
<path d="M19.2346 0.498535H5.5203C2.67998 0.498535 0.377441 2.80107 0.377441 5.64139V19.3557C0.377441 22.196 2.67998 24.4985 5.5203 24.4985H19.2346C22.0749 24.4985 24.3774 22.196 24.3774 19.3557V5.64139C24.3774 2.80107 22.0749 0.498535 19.2346 0.498535Z" fill="url(#paint1_radial_248_75)"/>
<path d="M19.2346 0.498535H5.5203C2.67998 0.498535 0.377441 2.80107 0.377441 5.64139V19.3557C0.377441 22.196 2.67998 24.4985 5.5203 24.4985H19.2346C22.0749 24.4985 24.3774 22.196 24.3774 19.3557V5.64139C24.3774 2.80107 22.0749 0.498535 19.2346 0.498535Z" fill="url(#paint2_radial_248_75)"/>
<path d="M18.3776 7.78425C18.3776 8.49431 17.8019 9.06996 17.0919 9.06996C16.3818 9.06996 15.8062 8.49431 15.8062 7.78425C15.8062 7.07417 16.3818 6.49854 17.0919 6.49854C17.8019 6.49854 18.3776 7.07417 18.3776 7.78425Z" fill="white"/>
<path fill-rule="evenodd" clip-rule="evenodd" d="M12.3773 16.7843C14.7442 16.7843 16.663 14.8655 16.663 12.4986C16.663 10.1317 14.7442 8.21289 12.3773 8.21289C10.0104 8.21289 8.09155 10.1317 8.09155 12.4986C8.09155 14.8655 10.0104 16.7843 12.3773 16.7843ZM12.3773 15.07C13.7975 15.07 14.9487 13.9188 14.9487 12.4986C14.9487 11.0784 13.7975 9.92718 12.3773 9.92718C10.9571 9.92718 9.80584 11.0784 9.80584 12.4986C9.80584 13.9188 10.9571 15.07 12.3773 15.07Z" fill="white"/>
<path fill-rule="evenodd" clip-rule="evenodd" d="M3.80591 12.1553C3.80591 9.27507 3.80591 7.8349 4.36645 6.73481C4.85951 5.76711 5.64626 4.98036 6.61396 4.4873C7.71405 3.92676 9.15422 3.92676 12.0345 3.92676H12.7202C15.6005 3.92676 17.0406 3.92676 18.1407 4.4873C19.1084 4.98036 19.8952 5.76711 20.3882 6.73481C20.9488 7.8349 20.9488 9.27507 20.9488 12.1553V12.841C20.9488 15.7213 20.9488 17.1615 20.3882 18.2615C19.8952 19.2292 19.1084 20.016 18.1407 20.509C17.0406 21.0696 15.6005 21.0696 12.7202 21.0696H12.0345C9.15422 21.0696 7.71405 21.0696 6.61396 20.509C5.64626 20.016 4.85951 19.2292 4.36645 18.2615C3.80591 17.1615 3.80591 15.7213 3.80591 12.841V12.1553ZM12.0345 5.64104H12.7202C14.1887 5.64104 15.1868 5.64238 15.9584 5.70542C16.71 5.76682 17.0944 5.87812 17.3625 6.01473C18.0076 6.34345 18.5321 6.86795 18.8608 7.51304C18.9974 7.78116 19.1087 8.1655 19.1701 8.91713C19.2331 9.68873 19.2345 10.6869 19.2345 12.1553V12.841C19.2345 14.3095 19.2331 15.3076 19.1701 16.0792C19.1087 16.8309 18.9974 17.2152 18.8608 17.4833C18.5321 18.1284 18.0076 18.6529 17.3625 18.9816C17.0944 19.1182 16.71 19.2296 15.9584 19.291C15.1868 19.354 14.1887 19.3553 12.7202 19.3553H12.0345C10.566 19.3553 9.56788 19.354 8.79628 19.291C8.04465 19.2296 7.66031 19.1182 7.39219 18.9816C6.7471 18.6529 6.2226 18.1284 5.89388 17.4833C5.75727 17.2152 5.64597 16.8309 5.58457 16.0792C5.52153 15.3076 5.52019 14.3095 5.52019 12.841V12.1553C5.52019 10.6869 5.52153 9.68873 5.58457 8.91713C5.64597 8.1655 5.75727 7.78116 5.89388 7.51304C6.2226 6.86795 6.7471 6.34345 7.39219 6.01473C7.66031 5.87812 8.04465 5.76682 8.79628 5.70542C9.56788 5.64238 10.566 5.64104 12.0345 5.64104Z" fill="white"/>
<defs>
<radialGradient id="paint0_radial_248_75" cx="0" cy="0" r="1" gradientUnits="userSpaceOnUse" gradientTransform="translate(8.94887 18.4985) rotate(-55.3758) scale(21.8739)">
<stop stop-color="#B13589"/>
<stop offset="0.79309" stop-color="#C62F94"/>
<stop offset="1" stop-color="#8A3AC8"/>
</radialGradient>
<radialGradient id="paint1_radial_248_75" cx="0" cy="0" r="1" gradientUnits="userSpaceOnUse" gradientTransform="translate(8.09173 25.3557) rotate(-65.1363) scale(19.3665)">
<stop stop-color="#E0E8B7"/>
<stop offset="0.444662" stop-color="#FB8A2E"/>
<stop offset="0.71474" stop-color="#E2425C"/>
<stop offset="1" stop-color="#E2425C" stop-opacity="0"/>
</radialGradient>
<radialGradient id="paint2_radial_248_75" cx="0" cy="0" r="1" gradientUnits="userSpaceOnUse" gradientTransform="translate(-0.908273 1.35568) rotate(-8.1301) scale(33.3351 7.13002)">
<stop offset="0.156701" stop-color="#406ADC"/>
<stop offset="0.467799" stop-color="#6A45BE"/>
<stop offset="1" stop-color="#6A45BE" stop-opacity="0"/>
</radialGradient>
</defs>
</svg>
