<svg width="169" height="34" viewBox="0 0 169 34" fill="none" xmlns="http://www.w3.org/2000/svg">
<path d="M35.2786 26C34.9272 26 34.6217 25.8702 34.362 25.6105C34.1024 25.3508 33.9725 25.0453 33.9725 24.6939V10.5794C33.9725 10.228 34.1024 9.92253 34.362 9.66285C34.6217 9.40316 34.9272 9.27332 35.2786 9.27332H36.1951C36.5464 9.27332 36.8519 9.40316 37.1116 9.66285C37.3713 9.92253 37.5012 10.228 37.5012 10.5794V24.6939C37.5012 25.0453 37.3713 25.3508 37.1116 25.6105C36.8519 25.8702 36.5464 26 36.1951 26H35.2786ZM42.3029 11.9313C41.9516 11.9313 41.6461 11.8091 41.3864 11.5646C41.1267 11.305 40.9969 10.9995 40.9969 10.6481V10.5794C40.9969 10.228 41.1267 9.92253 41.3864 9.66285C41.6461 9.40316 41.9516 9.27332 42.3029 9.27332H52.064C52.4153 9.27332 52.7208 9.40316 52.9805 9.66285C53.2402 9.92253 53.37 10.228 53.37 10.5794V10.6481C53.37 10.9995 53.2402 11.305 52.9805 11.5646C52.7208 11.8091 52.4153 11.9313 52.064 11.9313H48.9936C48.8714 11.9313 48.8103 12 48.8103 12.1375V24.6939C48.8103 25.0453 48.6804 25.3508 48.4208 25.6105C48.1611 25.8702 47.8556 26 47.5042 26H46.8627C46.5113 26 46.2058 25.8702 45.9461 25.6105C45.6864 25.3508 45.5566 25.0453 45.5566 24.6939V12.1375C45.5566 12 45.4955 11.9313 45.3733 11.9313H42.3029ZM59.6502 12.1146L57.6339 19.3093C57.6186 19.3552 57.6262 19.401 57.6568 19.4468C57.6873 19.4926 57.7255 19.5155 57.7713 19.5155H61.5749C61.6208 19.5155 61.6589 19.4926 61.6895 19.4468C61.7201 19.401 61.7277 19.3552 61.7124 19.3093L59.696 12.1146C59.696 12.0993 59.6884 12.0917 59.6731 12.0917C59.6579 12.0917 59.6502 12.0993 59.6502 12.1146ZM53.7157 26C53.3949 26 53.1429 25.8702 52.9595 25.6105C52.7762 25.3508 52.7381 25.0682 52.845 24.7627L57.588 10.5106C57.7255 10.144 57.947 9.84615 58.2525 9.61702C58.5733 9.38789 58.9246 9.27332 59.3065 9.27332H60.1314C60.5286 9.27332 60.8799 9.38789 61.1854 9.61702C61.5062 9.84615 61.7277 10.144 61.8499 10.5106L66.5929 24.7627C66.6999 25.0682 66.6617 25.3508 66.4784 25.6105C66.2951 25.8702 66.043 26 65.7222 26H64.8974C64.5307 26 64.187 25.8854 63.8663 25.6563C63.5607 25.4119 63.3545 25.1064 63.2476 24.7398L62.5144 22.1506C62.4991 22.0284 62.4151 21.9673 62.2623 21.9673H57.0839C56.9465 21.9673 56.8624 22.0284 56.8319 22.1506L56.0987 24.7398C56.007 25.1064 55.8008 25.4119 55.48 25.6563C55.1745 25.8854 54.8308 26 54.4489 26H53.7157Z" fill="#999999"/>
<path d="M108.555 12.1146L106.538 19.3093C106.523 19.3552 106.531 19.401 106.561 19.4468C106.592 19.4926 106.63 19.5155 106.676 19.5155H110.479C110.525 19.5155 110.563 19.4926 110.594 19.4468C110.624 19.401 110.632 19.3552 110.617 19.3093L108.6 12.1146C108.6 12.0993 108.593 12.0917 108.577 12.0917C108.562 12.0917 108.555 12.0993 108.555 12.1146ZM102.62 26C102.299 26 102.047 25.8702 101.864 25.6105C101.681 25.3508 101.642 25.0682 101.749 24.7627L106.492 10.5106C106.63 10.144 106.851 9.84615 107.157 9.61702C107.478 9.38789 107.829 9.27332 108.211 9.27332H109.036C109.433 9.27332 109.784 9.38789 110.09 9.61702C110.411 9.84615 110.632 10.144 110.754 10.5106L115.497 24.7627C115.604 25.0682 115.566 25.3508 115.383 25.6105C115.199 25.8702 114.947 26 114.627 26H113.802C113.435 26 113.091 25.8854 112.771 25.6563C112.465 25.4119 112.259 25.1064 112.152 24.7398L111.419 22.1506C111.403 22.0284 111.319 21.9673 111.167 21.9673H105.988C105.851 21.9673 105.767 22.0284 105.736 22.1506L105.003 24.7398C104.911 25.1064 104.705 25.4119 104.384 25.6563C104.079 25.8854 103.735 26 103.353 26H102.62ZM115.978 11.9313C115.626 11.9313 115.321 11.8091 115.061 11.5646C114.802 11.305 114.672 10.9995 114.672 10.6481V10.5794C114.672 10.228 114.802 9.92253 115.061 9.66285C115.321 9.40316 115.626 9.27332 115.978 9.27332H125.739C126.09 9.27332 126.396 9.40316 126.655 9.66285C126.915 9.92253 127.045 10.228 127.045 10.5794V10.6481C127.045 10.9995 126.915 11.305 126.655 11.5646C126.396 11.8091 126.09 11.9313 125.739 11.9313H122.668C122.546 11.9313 122.485 12 122.485 12.1375V24.6939C122.485 25.0453 122.355 25.3508 122.096 25.6105C121.836 25.8702 121.53 26 121.179 26H120.537C120.186 26 119.881 25.8702 119.621 25.6105C119.361 25.3508 119.231 25.0453 119.231 24.6939V12.1375C119.231 12 119.17 11.9313 119.048 11.9313H115.978ZM131.408 26C131.057 26 130.752 25.8702 130.492 25.6105C130.232 25.3508 130.102 25.0453 130.102 24.6939V10.5794C130.102 10.228 130.232 9.92253 130.492 9.66285C130.752 9.40316 131.057 9.27332 131.408 9.27332H139.199C139.55 9.27332 139.856 9.40316 140.115 9.66285C140.375 9.92253 140.505 10.228 140.505 10.5794C140.505 10.9307 140.375 11.2362 140.115 11.4959C139.856 11.7403 139.55 11.8625 139.199 11.8625H133.516C133.379 11.8625 133.31 11.9313 133.31 12.0687V15.7578C133.31 15.8953 133.379 15.964 133.516 15.964H138.809C139.161 15.964 139.451 16.0862 139.68 16.3306C139.924 16.575 140.047 16.8652 140.047 17.2013C140.047 17.5374 139.924 17.8276 139.68 18.072C139.451 18.3011 139.161 18.4157 138.809 18.4157H133.516C133.379 18.4157 133.31 18.4845 133.31 18.6219V23.2046C133.31 23.3421 133.379 23.4108 133.516 23.4108H139.199C139.55 23.4108 139.856 23.5406 140.115 23.8003C140.375 24.0447 140.505 24.3426 140.505 24.6939C140.505 25.0453 140.375 25.3508 140.115 25.6105C139.856 25.8702 139.55 26 139.199 26H131.408ZM145.169 26C144.818 26 144.512 25.8702 144.253 25.6105C144.008 25.3508 143.886 25.0453 143.886 24.6939V10.5794C143.886 10.228 144.008 9.92253 144.253 9.66285C144.512 9.40316 144.818 9.27332 145.169 9.27332H145.788C146.139 9.27332 146.445 9.40316 146.704 9.66285C146.964 9.92253 147.094 10.228 147.094 10.5794V16.5139C147.094 16.5292 147.102 16.5368 147.117 16.5368C147.132 16.5368 147.14 16.5292 147.14 16.5139L151.745 10.3273C152.249 9.62466 152.937 9.27332 153.808 9.27332H154.953C155.213 9.27332 155.404 9.39553 155.526 9.63993C155.648 9.88434 155.625 10.1058 155.457 10.3044L150.187 17.1326C150.111 17.2395 150.111 17.3464 150.187 17.4534L155.709 24.946C155.877 25.1598 155.9 25.389 155.778 25.6334C155.656 25.8778 155.457 26 155.182 26H154.037C153.166 26 152.486 25.6487 151.997 24.946L147.14 18.072C147.14 18.0567 147.132 18.0491 147.117 18.0491C147.102 18.0491 147.094 18.0567 147.094 18.072V24.6939C147.094 25.0453 146.964 25.3508 146.704 25.6105C146.445 25.8702 146.139 26 145.788 26H145.169ZM162.03 18.9427C160.197 18.3317 158.868 17.5908 158.043 16.7201C157.233 15.8494 156.828 14.7954 156.828 13.5581C156.828 12.168 157.294 11.0682 158.226 10.2586C159.158 9.44899 160.464 9.04419 162.144 9.04419C163.565 9.04419 164.802 9.20458 165.856 9.52537C166.223 9.6323 166.513 9.85379 166.727 10.1899C166.956 10.5106 167.071 10.8696 167.071 11.2668V11.473C167.071 11.7632 166.941 11.9924 166.681 12.1604C166.421 12.3131 166.154 12.3361 165.879 12.2291C164.734 11.7861 163.565 11.5646 162.373 11.5646C161.61 11.5646 161.029 11.7403 160.632 12.0917C160.235 12.443 160.036 12.9318 160.036 13.5581C160.036 14.6579 160.754 15.4446 162.19 15.9182C164.252 16.575 165.681 17.3235 166.475 18.1637C167.285 19.0038 167.689 20.0884 167.689 21.4173C167.689 24.6252 165.711 26.2291 161.755 26.2291C160.518 26.2291 159.395 26.0382 158.387 25.6563C158.02 25.5188 157.73 25.2821 157.516 24.946C157.317 24.6099 157.218 24.2357 157.218 23.8232V23.5483C157.218 23.258 157.34 23.0518 157.585 22.9296C157.829 22.7921 158.081 22.7845 158.341 22.9067C159.349 23.4108 160.411 23.6628 161.526 23.6628C163.466 23.6628 164.436 22.9296 164.436 21.4632C164.436 20.8674 164.252 20.3786 163.886 19.9967C163.519 19.5996 162.9 19.2482 162.03 18.9427Z" fill="#999999"/>
<path d="M3.38154 24.3256H5.11356V20.8615H6.62908V21.511H7.27859V22.8101L8.57761 23.0266V23.8926H9.66013V25.6246H9.87663V21.2945H10.3096V20.4285H11.3922V18.913H12.9077V18.2635H13.7737V16.315H14.4232V18.2635H15.2892V18.913H15.9387L16.1552 25.6246V19.5625H16.8047V13.7169H18.5368V12.8509H19.8358V13.7169H20.4853V12.8509H22.0008V13.9334H22.6503V22.5936H23.7328V17.181H24.8154V23.0266L26.5474 23.8926L27.4134 21.944L25.6814 21.2945V19.9955L28.4959 19.346L28.2794 17.181L26.1144 16.315V15.0159L28.0629 14.3664L27.6299 12.2014H25.2484L24.5989 10.9024L26.1144 8.95385L24.1658 7.00532L22.4338 8.30434L21.1348 7.65483L22.0008 5.4898L19.4028 4.19078L18.1038 6.13931H16.8047L15.9387 3.75777H13.7737L12.9077 6.13931H11.3922L9.87663 4.19078L7.9281 5.05679L8.57761 7.65483L7.4951 8.30434L5.33006 7.00532L3.38154 8.73735L5.11356 10.9024L4.46405 11.7684H2.08252L1 13.7169L3.38154 15.0159V16.0985L1 16.9645V19.5625H4.03104V20.8615L2.08252 22.1605L3.38154 24.3256Z" fill="#999999" stroke="#999999" stroke-width="0.091653"/>
<path d="M10.7424 10.6859V11.9849M10.7424 13.2839V11.9849M10.7424 11.9849H12.0414H9.44336" stroke="white" stroke-width="0.641571"/>
<path d="M12.4765 15.4076C13.5622 14.8676 14.159 14.0921 14.8137 12.8746C14.8372 12.831 14.8218 12.7756 14.7774 12.7535C14.4992 12.6154 14.3176 12.6469 14.0301 12.7771C14.0037 12.789 13.9804 12.8078 13.9625 12.8306C13.2195 13.7766 12.674 14.1372 11.3919 14.3111C10.4097 14.5108 10.0158 14.215 9.52548 13.3729C9.47046 13.2784 9.40221 13.1883 9.30628 13.1358C9.1256 13.0369 8.95517 13.0489 8.6592 13.1884C8.61362 13.2099 8.59555 13.265 8.61809 13.31L9.01037 14.0946C8.31535 14.0872 7.9382 13.8936 7.56095 13.3043L7.55351 13.2927C7.35062 12.9757 7.09751 12.5801 6.72836 12.6405C6.64688 12.6539 6.56639 12.6892 6.47788 12.7485C6.43959 12.7741 6.4299 12.826 6.45301 12.8658C7.10737 13.9949 7.60754 14.7774 8.5992 15.3432C9.77536 16.0142 11.2642 16.0107 12.4765 15.4076Z" fill="white" stroke="white" stroke-width="0.091653"/>
<path d="M8.79201 8.68724C7.70634 9.22731 7.10958 10.0027 6.45486 11.2203C6.43139 11.2639 6.44678 11.3193 6.49116 11.3413C6.70532 11.4477 6.86229 11.4535 7.05439 11.3911C7.20591 11.3419 7.32889 11.2329 7.43 11.1097C8.11291 10.2782 8.66682 9.94788 9.87665 9.78378C10.7472 9.60679 11.1557 9.81904 11.5787 10.456C11.7534 10.7192 11.9498 11.0566 12.2636 11.0201C12.3608 11.0088 12.4714 10.9715 12.6094 10.9065C12.6549 10.885 12.673 10.8299 12.6505 10.7848L12.2582 10.0003C12.9532 10.0077 13.3304 10.2012 13.7076 10.7905L13.715 10.8022C13.9179 11.1192 14.171 11.5147 14.5402 11.4543C14.6217 11.441 14.7022 11.4057 14.7907 11.3464C14.829 11.3208 14.8387 11.2689 14.8155 11.229C14.1612 10.1 13.661 9.31744 12.6694 8.75168C11.4932 8.08067 10.0044 8.08414 8.79201 8.68724Z" fill="white" stroke="white" stroke-width="0.091653"/>
<path d="M94.8775 16.6844L92.498 19.7243L97.7857 28.5061L94.8775 16.6844Z" fill="url(#paint0_linear_942_22)" stroke="url(#paint1_linear_942_22)" stroke-width="0.091653"/>
<path d="M77.4279 4.18719L70.2896 28.5061L80.8649 12.2935L77.4279 4.18719Z" fill="url(#paint2_linear_942_22)" stroke="url(#paint3_linear_942_22)" stroke-width="0.091653"/>
<path d="M93.8199 13.3068L92.2336 3.84943L83.5089 20.062L81.9226 16.0089L79.2788 19.3865L82.7158 28.5061L93.8199 13.3068Z" fill="url(#paint4_linear_942_22)" stroke="url(#paint5_linear_942_22)" stroke-width="0.091653"/>
<path d="M10.5017 7.70902C8.20754 8.24658 7.39037 9.08366 6.45486 10.8233C6.43139 10.867 6.44678 10.9224 6.49116 10.9444C6.78204 11.0889 6.96742 11.0478 7.27861 10.9024C8.03579 9.93021 8.57881 9.56289 9.87665 9.38686C10.913 9.17617 11.2945 9.51705 11.8252 10.4694C12.0668 10.6592 12.2406 10.6833 12.6094 10.5095C12.6549 10.488 12.673 10.433 12.6505 10.3879L12.3253 9.73759C12.2946 9.67627 12.3398 9.60437 12.4083 9.60819C13.1688 9.65067 13.5259 9.96987 13.9902 10.9024C14.34 11.0908 14.5307 11.1237 14.7907 10.9495C14.829 10.9238 14.8387 10.872 14.8155 10.8321C13.868 9.19725 13.2438 8.28895 10.9827 7.71325C10.8252 7.67316 10.6599 7.67195 10.5017 7.70902Z" fill="white" stroke="white" stroke-width="0.091653"/>
<defs>
<linearGradient id="paint0_linear_942_22" x1="93.5556" y1="17.3599" x2="99.7498" y2="27.663" gradientUnits="userSpaceOnUse">
<stop stop-color="#25497D"/>
<stop offset="1" stop-color="#29385F"/>
</linearGradient>
<linearGradient id="paint1_linear_942_22" x1="95.6707" y1="16.1918" x2="90.526" y2="26.9304" gradientUnits="userSpaceOnUse">
<stop stop-color="#223752"/>
<stop offset="1" stop-color="#456888"/>
</linearGradient>
<linearGradient id="paint2_linear_942_22" x1="77.1635" y1="4.52496" x2="66.7814" y2="25.7792" gradientUnits="userSpaceOnUse">
<stop stop-color="#3374A9"/>
<stop offset="1" stop-color="#50819F"/>
</linearGradient>
<linearGradient id="paint3_linear_942_22" x1="76.6348" y1="3.17391" x2="65.8657" y2="25.0282" gradientUnits="userSpaceOnUse">
<stop stop-color="#2F74B0"/>
<stop offset="1" stop-color="#417695"/>
</linearGradient>
<linearGradient id="paint4_linear_942_22" x1="93.5555" y1="2.83614" x2="75.6038" y2="23.3517" gradientUnits="userSpaceOnUse">
<stop stop-color="#223752"/>
<stop offset="1" stop-color="#456888"/>
</linearGradient>
<linearGradient id="paint5_linear_942_22" x1="88.0035" y1="2.82207" x2="79.1644" y2="27.1485" gradientUnits="userSpaceOnUse">
<stop stop-color="#223752"/>
<stop offset="1" stop-color="#456888"/>
</linearGradient>
</defs>
</svg>
