<svg width="23" height="23" viewBox="0 0 23 23" fill="none" xmlns="http://www.w3.org/2000/svg">
<path fill-rule="evenodd" clip-rule="evenodd" d="M23 23H18.4V14.9511C18.4 12.7431 17.426 11.5112 15.6791 11.5112C13.7782 11.5112 12.65 12.7949 12.65 14.9511V23H8.05V8.05H12.65V9.7312C12.65 9.7312 14.0932 7.19873 17.3454 7.19873C20.5988 7.19873 23 9.18402 23 13.2918V23ZM2.8083 5.65903C1.25695 5.65903 0 4.3918 0 2.82896C0 1.26726 1.25695 0 2.8083 0C4.3585 0 5.61544 1.26726 5.61544 2.82896C5.61659 4.3918 4.3585 5.65903 2.8083 5.65903ZM0 23H5.75V8.05H0V23Z" fill="white"/>
</svg>
