<svg width="50" height="50" viewBox="0 0 50 50" fill="none" xmlns="http://www.w3.org/2000/svg">
<circle cx="25" cy="25" r="25" fill="#01224F"/>
<path d="M25.4114 24.9788C25.4114 24.2924 24.855 23.7359 24.1686 23.7359C23.4822 23.7359 22.9257 24.2924 22.9257 24.9788H25.4114ZM24.1686 36.4429H22.9257C22.9257 36.8555 23.1305 37.2413 23.4724 37.4725C23.8143 37.7036 24.2486 37.75 24.6316 37.5963L24.1686 36.4429ZM33.6872 32.6215L34.1502 33.7749C34.6213 33.5858 34.93 33.1291 34.93 32.6215H33.6872ZM34.93 24.6772C34.93 23.9908 34.3736 23.4343 33.6872 23.4343C33.0008 23.4343 32.4443 23.9908 32.4443 24.6772H34.93ZM24.9232 23.9913C24.3779 23.5745 23.5979 23.6788 23.1811 24.2241C22.7643 24.7695 22.8685 25.5495 23.4139 25.9663L24.9232 23.9913ZM27.5624 27.5722L26.8077 28.5597C27.1773 28.8421 27.6734 28.8946 28.0938 28.6958L27.5624 27.5722ZM34.2137 25.8007C34.8341 25.5071 35.0992 24.7662 34.8058 24.1458C34.5121 23.5253 33.7712 23.2602 33.1508 23.5537L34.2137 25.8007ZM23.7056 23.8254C23.0686 24.0811 22.7595 24.8048 23.0152 25.4418C23.2709 26.0788 23.9946 26.3879 24.6316 26.1322L23.7056 23.8254ZM34.1502 22.3108C34.7872 22.0551 35.0963 21.3314 34.8406 20.6944C34.5849 20.0574 33.8612 19.7483 33.2242 20.004L34.1502 22.3108ZM33.2244 22.3108C33.8614 22.5665 34.585 22.2573 34.8406 21.6203C35.0963 20.9833 34.787 20.2596 34.15 20.004L33.2244 22.3108ZM24.6314 16.1843C23.9944 15.9286 23.2707 16.2378 23.0152 16.8748C22.7595 17.5119 23.0687 18.2355 23.7057 18.4912L24.6314 16.1843ZM34.2962 20.0757C33.698 19.7393 32.9402 19.9517 32.6038 20.55C32.2674 21.1484 32.4798 21.9061 33.0782 22.2425L34.2962 20.0757ZM37.086 23.0698L37.6168 24.1936C38.0372 23.9951 38.3116 23.5785 38.328 23.1138C38.3446 22.6492 38.1003 22.2142 37.695 21.9863L37.086 23.0698ZM33.1508 23.5537C32.5302 23.8468 32.2652 24.5872 32.5583 25.208C32.8515 25.8286 33.5929 26.0939 34.2137 25.8007L33.1508 23.5537ZM32.7607 20.3234C32.3002 20.8324 32.3393 21.6183 32.8482 22.079C33.3571 22.5395 34.1431 22.5004 34.6038 21.9915L32.7607 20.3234ZM37.7571 16.655L38.6787 17.489C38.96 17.178 39.0658 16.7459 38.9594 16.3401C38.8532 15.9343 38.5494 15.6095 38.1515 15.4764L37.7571 16.655ZM27.5624 13.2429L27.9568 12.0643C27.4706 11.9016 26.9342 12.0542 26.6064 12.4487L27.5624 13.2429ZM23.2043 16.5435C22.7656 17.0714 22.8381 17.855 23.366 18.2937C23.894 18.7323 24.6776 18.6599 25.1163 18.132L23.2043 16.5435ZM14.1788 20.004C13.5418 20.2596 13.2326 20.9833 13.4882 21.6203C13.7439 22.2573 14.4675 22.5665 15.1045 22.3108L14.1788 20.004ZM24.6231 18.4912C25.2601 18.2355 25.5694 17.5119 25.3137 16.8748C25.0581 16.2378 24.3345 15.9286 23.6975 16.1843L24.6231 18.4912ZM15.2507 22.2409C15.8491 21.9045 16.0614 21.1467 15.7251 20.5484C15.3887 19.95 14.631 19.7377 14.0326 20.074L15.2507 22.2409ZM11.2429 23.0681L10.6338 21.9847C10.2287 22.2124 9.98453 22.6472 10.0008 23.1115C10.017 23.576 10.291 23.9926 10.7111 24.1915L11.2429 23.0681ZM14.1099 25.8006C14.7302 26.0942 15.4713 25.8294 15.765 25.209C16.0587 24.5885 15.7939 23.8476 15.1735 23.5538L14.1099 25.8006ZM15.1047 20.004C14.4677 19.7483 13.744 20.0574 13.4883 20.6944C13.2326 21.3314 13.5416 22.0551 14.1786 22.3108L15.1047 20.004ZM23.6973 26.1322C24.3343 26.3879 25.058 26.0788 25.3137 25.4418C25.5694 24.8048 25.2603 24.0811 24.6233 23.8254L23.6973 26.1322ZM13.7132 21.9837C14.1695 22.4964 14.9551 22.5421 15.4679 22.0859C15.9807 21.6297 16.0265 20.844 15.5702 20.3312L13.7132 21.9837ZM11.2429 17.3377L10.7517 16.196C10.3849 16.3538 10.1163 16.6783 10.0296 17.0681C9.94298 17.4579 10.0489 17.8656 10.3144 18.1639L11.2429 17.3377ZM20.7615 13.2429L21.7178 12.4491C21.3659 12.0251 20.7766 11.8834 20.2704 12.1012L20.7615 13.2429ZM23.204 18.1315C23.6423 18.6597 24.4259 18.7325 24.9541 18.2941C25.4822 17.8557 25.5551 17.0721 25.1166 16.5439L23.204 18.1315ZM25.4031 24.9805C25.4031 24.2941 24.8467 23.7376 24.1603 23.7376C23.4739 23.7376 22.9174 24.2941 22.9174 24.9805H25.4031ZM24.1603 36.4429L23.6973 37.5963C24.0802 37.75 24.5146 37.7036 24.8565 37.4725C25.1983 37.2413 25.4031 36.8555 25.4031 36.4429H24.1603ZM14.6417 32.6215H13.3988C13.3988 33.1291 13.7075 33.5858 14.1786 33.7749L14.6417 32.6215ZM15.8845 24.6772C15.8845 23.9908 15.3281 23.4343 14.6417 23.4343C13.9553 23.4343 13.3988 23.9908 13.3988 24.6772H15.8845ZM24.9143 25.9668C25.46 25.5505 25.5647 24.7705 25.1483 24.2248C24.732 23.6791 23.952 23.5744 23.4063 23.9908L24.9143 25.9668ZM20.7615 27.5722L20.23 28.6958C20.6501 28.8945 21.146 28.8423 21.5155 28.5602L20.7615 27.5722ZM15.1735 23.5538C14.553 23.2603 13.8117 23.5253 13.5182 24.1458C13.2247 24.7662 13.4894 25.5069 14.1099 25.8006L15.1735 23.5538ZM22.9257 24.9788V36.4429H25.4114V24.9788H22.9257ZM24.6316 37.5963L34.1502 33.7749L33.2242 31.4682L23.7056 35.2895L24.6316 37.5963ZM34.93 32.6215V24.6772H32.4443V32.6215H34.93ZM23.4139 25.9663L26.8077 28.5597L28.3171 26.5847L24.9232 23.9913L23.4139 25.9663ZM28.0938 28.6958L34.2137 25.8007L33.1508 23.5537L27.031 26.4487L28.0938 28.6958ZM24.6316 26.1322L34.1502 22.3108L33.2242 20.004L23.7056 23.8254L24.6316 26.1322ZM34.15 20.004L24.6314 16.1843L23.7057 18.4912L33.2244 22.3108L34.15 20.004ZM33.0782 22.2425L36.477 24.1532L37.695 21.9863L34.2962 20.0757L33.0782 22.2425ZM36.5552 21.9459L33.1508 23.5537L34.2137 25.8007L37.6168 24.1936L36.5552 21.9459ZM34.6038 21.9915L38.6787 17.489L36.8356 15.821L32.7607 20.3234L34.6038 21.9915ZM38.1515 15.4764L27.9568 12.0643L27.168 14.4215L37.3627 17.8336L38.1515 15.4764ZM26.6064 12.4487L23.2043 16.5435L25.1163 18.132L28.5184 14.0372L26.6064 12.4487ZM15.1045 22.3108L24.6231 18.4912L23.6975 16.1843L14.1788 20.004L15.1045 22.3108ZM14.0326 20.074L10.6338 21.9847L11.8519 24.1516L15.2507 22.2409L14.0326 20.074ZM10.7111 24.1915L14.1099 25.8006L15.1735 23.5538L11.7747 21.9447L10.7111 24.1915ZM14.1786 22.3108L23.6973 26.1322L24.6233 23.8254L15.1047 20.004L14.1786 22.3108ZM15.5702 20.3312L12.1714 16.5115L10.3144 18.1639L13.7132 21.9837L15.5702 20.3312ZM11.734 18.4794L21.2527 14.3846L20.2704 12.1012L10.7517 16.196L11.734 18.4794ZM19.8052 14.0367L23.204 18.1315L25.1166 16.5439L21.7178 12.4491L19.8052 14.0367ZM22.9174 24.9805V36.4429H25.4031V24.9805H22.9174ZM24.6233 35.2895L15.1047 31.4682L14.1786 33.7749L23.6973 37.5963L24.6233 35.2895ZM15.8845 32.6215V24.6772H13.3988V32.6215H15.8845ZM23.4063 23.9908L20.0076 26.5842L21.5155 28.5602L24.9143 25.9668L23.4063 23.9908ZM21.2929 26.4487L15.1735 23.5538L14.1099 25.8006L20.23 28.6958L21.2929 26.4487Z" fill="#98DAF8"/>
</svg>
